<?xml version="1.0" standalone="no"?>
<!DOCTYPE svg PUBLIC "-//W3C//DTD SVG 20010904//EN"
 "http://www.w3.org/TR/2001/REC-SVG-20010904/DTD/svg10.dtd">
<svg version="1.0" xmlns="http://www.w3.org/2000/svg"
 width="1200.000000pt" height="1200.000000pt" viewBox="0 0 1200.000000 1200.000000"
 preserveAspectRatio="xMidYMid meet">

<g transform="translate(0.000000,1200.000000) scale(0.100000,-0.100000)"
fill="#000000" stroke="none">
<path d="M5745 11989 c-1080 -43 -2129 -380 -3035 -976 -358 -236 -613 -445
-941 -773 -333 -332 -540 -583 -785 -955 -751 -1139 -1089 -2529 -948 -3895
125 -1209 599 -2327 1384 -3260 146 -174 536 -564 710 -710 1421 -1194 3278
-1664 5097 -1289 1650 340 3092 1378 3953 2844 104 179 280 534 366 740 446
1077 565 2311 333 3470 -185 921 -598 1811 -1180 2540 -1018 1277 -2477 2075
-4094 2240 -133 14 -580 37 -645 33 -14 -1 -110 -5 -215 -9z m811 -193 c911
-94 1732 -369 2490 -835 1093 -672 1935 -1688 2394 -2886 191 -498 300 -975
362 -1575 20 -192 16 -852 -5 -1055 -84 -782 -281 -1451 -617 -2103 -548
-1059 -1386 -1911 -2438 -2478 -1318 -709 -2905 -876 -4353 -459 -2030 586
-3599 2245 -4064 4297 -166 733 -189 1527 -66 2260 203 1202 765 2292 1626
3153 700 699 1565 1210 2508 1481 363 104 745 174 1112 204 72 5 150 12 175
14 110 9 734 -4 876 -18z"/>
<path d="M5978 11476 c-5 -23 -2 -26 23 -26 36 0 43 -13 19 -35 -29 -26 -26
-55 5 -55 32 0 85 52 85 84 0 33 -23 48 -79 54 -46 4 -49 3 -53 -22z"/>
<path d="M5835 11378 c9 -32 36 -68 69 -92 22 -17 45 -22 119 -24 106 -4 146
11 185 68 32 48 29 57 -25 62 -40 4 -51 1 -68 -18 -48 -54 -115 -55 -159 -4
-21 26 -31 30 -76 30 -49 0 -51 -1 -45 -22z"/>
<path d="M5916 11192 c-6 -10 -286 -781 -286 -788 0 -2 46 -3 102 -2 l102 3
25 78 25 77 76 0 c41 0 98 -3 126 -6 l52 -7 22 -78 23 -79 103 0 103 0 -13 43
c-7 23 -64 205 -126 405 l-114 362 -107 0 c-59 0 -110 -4 -113 -8z m143 -363
c17 -59 31 -113 31 -119 0 -10 -18 -11 -72 -6 -39 3 -74 8 -76 10 -2 2 14 58
35 124 21 66 41 114 45 108 3 -6 20 -59 37 -117z"/>
<path d="M6615 11138 c-14 -45 -143 -764 -137 -770 11 -10 166 -37 173 -30 3
4 11 39 18 77 35 208 84 445 91 438 4 -4 49 -137 100 -294 l93 -286 95 -17
c52 -9 96 -16 97 -14 7 7 148 778 144 783 -7 6 -170 37 -174 33 -2 -2 -20 -91
-40 -198 -20 -107 -39 -205 -43 -218 -5 -17 -26 35 -86 215 -43 131 -82 242
-86 247 -8 8 -186 45 -223 46 -10 0 -19 -6 -22 -12z"/>
<path d="M5040 11125 c-8 -2 -79 -16 -157 -31 -79 -14 -143 -27 -143 -29 0 -1
11 -62 25 -135 33 -175 34 -168 -16 -176 l-41 -7 6 -49 c10 -75 11 -76 59 -67
23 4 43 6 45 4 2 -1 17 -79 34 -171 17 -93 34 -173 38 -177 8 -9 184 22 314
54 106 27 162 57 219 118 112 120 134 296 57 459 -38 80 -91 137 -164 175 -55
28 -71 31 -161 33 -55 2 -107 1 -115 -1z m161 -177 c88 -49 141 -205 108 -321
-22 -82 -111 -145 -208 -150 l-45 -2 -12 60 c-7 33 -15 79 -19 101 l-6 42 38
7 c21 3 59 11 84 16 l46 10 -10 52 c-5 29 -12 55 -16 59 -3 4 -40 0 -81 -8
-41 -8 -78 -14 -81 -14 -8 0 -33 149 -26 156 10 11 103 23 146 18 24 -2 61
-14 82 -26z"/>
<path d="M7658 10831 c-115 -37 -199 -126 -255 -268 -22 -56 -27 -85 -27 -163
-1 -84 2 -102 28 -157 67 -145 229 -233 476 -258 l66 -7 72 183 c39 101 68
187 64 191 -9 8 -315 128 -319 125 -1 -2 -14 -33 -28 -70 l-25 -68 46 -19 c25
-11 57 -23 70 -26 13 -3 24 -10 24 -15 0 -26 -54 -139 -66 -139 -25 0 -110 48
-143 81 -48 48 -63 85 -63 154 1 113 61 227 147 276 118 68 261 13 361 -138
20 -30 40 -51 44 -46 4 4 22 45 40 91 l33 83 -24 25 c-66 70 -198 145 -301
169 -83 19 -150 18 -220 -4z"/>
<path d="M3800 10762 c-80 -27 -117 -48 -173 -100 -59 -56 -93 -119 -105 -198
-28 -178 83 -404 240 -489 69 -38 188 -46 269 -20 120 39 211 110 257 200 30
60 41 186 23 262 -35 138 -137 280 -238 329 -74 36 -191 43 -273 16z m135
-161 c134 -60 232 -317 162 -422 -24 -37 -97 -79 -135 -79 -68 0 -149 73 -201
180 -29 61 -36 89 -39 150 -3 65 -1 80 20 110 24 36 97 80 133 80 11 0 38 -9
60 -19z"/>
<path d="M8644 10123 c-87 -120 -193 -266 -236 -325 l-78 -107 153 -110 c190
-138 222 -155 313 -159 84 -5 130 14 187 77 62 69 71 141 27 224 -11 20 -20
38 -20 39 0 2 18 4 39 4 48 2 112 36 140 75 11 15 26 48 33 72 15 59 -7 119
-65 178 -36 35 -225 178 -309 233 l-26 17 -158 -218z m303 -70 c52 -41 61 -71
37 -112 -23 -39 -61 -55 -98 -41 -31 11 -96 59 -96 69 0 4 20 35 45 69 50 68
47 68 112 15z m-175 -253 c70 -51 86 -78 74 -126 -4 -14 -18 -37 -32 -51 -36
-36 -94 -28 -168 23 -31 22 -56 43 -56 47 0 10 103 156 110 156 3 1 35 -22 72
-49z"/>
<path d="M2923 10252 c-46 -31 -83 -64 -83 -72 0 -18 226 -790 234 -797 5 -6
140 82 156 103 6 7 0 39 -16 88 -15 42 -25 78 -23 80 63 48 203 137 212 133 7
-2 37 -25 68 -50 l57 -46 86 60 86 60 -308 226 c-169 124 -321 236 -338 249
-17 13 -35 24 -40 24 -5 -1 -46 -27 -91 -58z m240 -274 c51 -40 95 -77 97 -81
3 -5 -23 -28 -57 -53 -34 -24 -64 -41 -66 -37 -2 5 -19 54 -36 110 -17 56 -34
109 -37 118 -3 8 -3 15 0 15 3 0 48 -33 99 -72z"/>
<path d="M5956 10091 l-37 -120 -127 -3 -126 -3 101 -73 101 -72 -38 -118
c-21 -64 -36 -119 -34 -121 2 -2 20 10 41 26 53 43 155 113 162 113 4 0 49
-31 101 -69 52 -39 96 -68 98 -66 2 2 -13 53 -32 114 -20 61 -36 113 -36 116
0 3 46 39 102 80 l101 74 -129 3 -128 3 -31 101 c-48 153 -46 153 -89 15z"/>
<path d="M5150 9999 c-7 -61 -19 -116 -26 -123 -7 -7 -62 -21 -124 -31 -130
-22 -130 -21 18 -90 50 -24 92 -50 92 -57 0 -7 -7 -58 -15 -113 -8 -55 -14
-107 -14 -115 0 -8 39 27 87 78 l87 93 109 -51 c60 -28 111 -49 113 -46 3 2
-20 49 -51 104 -31 55 -56 104 -56 108 0 5 37 46 82 91 45 45 79 85 76 88 -3
4 -57 -3 -118 -14 -62 -11 -116 -18 -121 -16 -4 3 -31 50 -60 105 -29 55 -55
100 -59 100 -4 0 -12 -50 -20 -111z"/>
<path d="M6775 10023 c-73 -133 -56 -124 -192 -97 -64 13 -118 23 -120 21 -2
-2 33 -42 77 -89 44 -48 80 -92 80 -99 0 -7 -25 -57 -56 -112 -31 -54 -54
-100 -52 -101 1 -2 50 18 108 45 58 26 110 48 115 48 6 0 46 -41 89 -90 44
-49 81 -87 83 -85 4 3 -12 149 -22 213 l-6 32 111 52 c61 29 107 55 103 59 -4
4 -37 13 -73 19 -36 7 -86 17 -112 22 l-46 10 -13 120 c-7 65 -16 119 -19 119
-4 0 -28 -39 -55 -87z"/>
<path d="M2476 9875 c-124 -51 -226 -142 -275 -245 -23 -48 -26 -68 -26 -155
0 -93 2 -104 33 -162 47 -92 149 -195 233 -237 88 -44 156 -53 240 -32 84 22
142 57 211 129 51 52 128 179 128 211 0 6 -31 42 -69 80 l-68 68 -7 -49 c-23
-162 -105 -253 -227 -253 -98 0 -207 79 -263 191 -76 154 39 318 223 319 71 0
71 13 1 87 -36 37 -67 69 -70 70 -3 1 -32 -8 -64 -22z"/>
<path d="M4406 9760 l7 -126 -112 -43 c-61 -23 -111 -45 -111 -49 0 -4 53 -21
118 -37 l117 -30 7 -114 c4 -62 9 -118 11 -124 2 -8 54 67 123 180 11 17 16
17 128 -11 64 -15 119 -26 121 -24 3 2 -29 44 -70 94 -41 49 -75 93 -75 97 0
4 26 49 58 100 32 51 62 98 66 105 7 12 0 10 -158 -54 l-69 -27 -36 39 c-20
22 -57 65 -83 95 l-48 54 6 -125z"/>
<path d="M7508 9790 c-83 -102 -68 -99 -211 -42 -48 19 -90 32 -93 30 -2 -3
25 -51 62 -106 l66 -102 -68 -82 c-37 -46 -74 -91 -82 -100 -16 -19 -21 -20
126 19 52 13 100 22 108 19 7 -3 42 -49 76 -103 l63 -98 6 60 c4 33 7 90 8
126 l1 67 78 20 c42 12 97 26 121 32 23 6 40 14 36 18 -3 4 -55 26 -113 48
l-107 42 4 121 c2 67 1 121 -2 121 -3 0 -39 -40 -79 -90z"/>
<path d="M9813 9758 c-57 -17 -103 -34 -103 -37 0 -4 19 -26 43 -49 l42 -41
124 14 c68 8 127 17 129 20 8 7 -110 125 -123 124 -5 -1 -56 -15 -112 -31z"/>
<path d="M9340 9514 c-162 -74 -331 -152 -375 -172 -44 -20 -82 -37 -84 -39
-6 -4 122 -137 136 -141 6 -2 42 13 81 32 l69 35 64 -67 c36 -37 75 -79 88
-94 l23 -26 -42 -71 -41 -71 67 -75 c37 -41 70 -75 73 -75 3 0 94 167 203 372
l196 371 -71 79 c-39 43 -76 78 -81 78 -6 0 -144 -61 -306 -136z m150 -211
c-34 -59 -64 -111 -68 -114 -4 -4 -31 20 -60 52 l-53 58 118 60 c65 32 119 58
121 56 2 -2 -24 -52 -58 -112z"/>
<path d="M3734 9211 c-611 -408 -1072 -929 -1399 -1581 -716 -1428 -534 -3148
465 -4394 689 -858 1671 -1396 2775 -1518 160 -17 690 -17 850 0 66 8 185 25
265 38 1605 272 2902 1478 3290 3059 88 358 115 587 114 985 0 393 -28 631
-115 982 -220 893 -732 1681 -1464 2253 -95 74 -375 265 -389 265 -3 0 -6 -22
-6 -48 l0 -49 103 -68 c238 -159 428 -317 648 -541 633 -647 1011 -1450 1121
-2379 17 -148 17 -673 0 -830 -73 -654 -284 -1247 -635 -1783 -633 -966 -1648
-1613 -2787 -1776 -191 -27 -352 -38 -585 -37 -250 0 -441 16 -675 57 -1646
284 -2953 1580 -3254 3224 -48 264 -60 404 -61 720 0 312 9 430 51 680 184
1084 813 2052 1731 2664 l153 101 0 48 c0 26 -4 47 -9 47 -4 0 -89 -54 -187
-119z"/>
<path d="M9916 9029 c-123 -30 -282 -152 -331 -253 -74 -152 -37 -324 100
-461 34 -34 83 -75 108 -89 l46 -27 75 52 c42 29 76 56 76 60 0 4 -15 12 -32
19 -161 59 -228 132 -228 246 0 53 48 132 109 180 152 120 302 109 377 -29 22
-41 28 -66 32 -143 l5 -93 74 51 c42 29 78 58 80 66 3 7 -2 41 -11 74 -41 147
-138 274 -246 322 -67 30 -170 41 -234 25z"/>
<path d="M1603 8907 c-75 -56 -136 -132 -182 -227 -34 -72 -36 -80 -36 -180 0
-101 1 -108 34 -168 82 -151 291 -267 446 -247 143 17 274 132 342 298 35 86
64 190 55 198 -30 26 -326 208 -331 204 -3 -4 -47 -70 -97 -148 l-92 -142 59
-37 c32 -21 63 -38 68 -38 5 0 26 27 47 60 20 33 38 60 40 60 1 0 32 -18 68
-41 40 -25 63 -46 59 -53 -54 -92 -125 -151 -199 -162 -94 -14 -234 61 -291
156 -27 44 -33 65 -33 110 0 110 80 214 202 263 34 13 64 29 65 34 4 10 -137
103 -155 103 -5 0 -36 -20 -69 -43z"/>
<path d="M5075 8751 l-900 -198 3 -114 c2 -62 4 -114 5 -116 1 -1 189 36 417
83 228 46 421 84 428 84 9 0 12 -42 12 -178 l0 -179 -162 -81 c-513 -254 -912
-658 -1160 -1173 l-53 -110 -70 5 c-38 3 -123 8 -188 12 -115 6 -118 7 -113
28 23 98 157 808 153 812 -3 3 -59 8 -124 11 l-118 6 -183 -914 c-101 -503
-183 -923 -183 -934 1 -11 90 -428 198 -927 l198 -908 71 0 c39 0 91 3 116 6
l45 6 -83 411 c-46 226 -84 419 -84 429 0 17 13 18 178 18 l178 0 48 -105 c63
-137 182 -335 276 -460 92 -122 304 -342 425 -440 139 -113 304 -218 484 -308
l164 -82 -7 -175 c-4 -96 -9 -177 -11 -179 -2 -2 -190 33 -417 78 -227 45
-416 81 -420 81 -5 0 -8 -56 -8 -124 l0 -125 53 -10 c28 -6 442 -89 919 -185
l868 -174 912 199 c502 109 917 199 921 199 9 0 -1 220 -9 229 -3 3 -587 -111
-836 -163 -17 -4 -18 10 -17 187 l0 192 116 55 c234 111 434 253 642 455 148
144 261 279 360 430 67 101 221 397 221 423 0 12 26 13 168 7 197 -8 206 -9
199 -38 -18 -74 -159 -808 -156 -811 2 -2 58 -5 124 -7 l120 -4 182 900 c100
495 182 916 183 935 0 30 -178 864 -349 1635 l-47 210 -109 -4 c-61 -2 -112
-5 -115 -8 -3 -3 34 -196 81 -429 l86 -424 -191 0 -191 0 -64 131 c-162 333
-431 654 -741 888 -140 105 -245 170 -410 251 l-125 61 8 187 c5 103 10 188
11 189 1 1 181 -34 401 -77 220 -44 410 -80 423 -80 22 0 22 2 22 120 l0 119
-37 10 c-88 23 -1787 361 -1812 360 -14 0 -431 -90 -926 -198z m1116 -881
c427 -42 831 -211 1154 -482 111 -93 240 -227 228 -238 -4 -4 -363 -119 -798
-255 -532 -166 -799 -245 -816 -241 -15 3 -372 105 -794 226 -422 122 -770
219 -773 216 -5 -6 13 -1969 24 -2426 l5 -245 -41 45 c-112 122 -272 402 -344
603 -89 246 -120 426 -120 712 -1 355 54 599 203 910 69 142 216 376 252 398
10 6 19 17 19 24 0 21 231 246 328 321 428 328 957 483 1473 432z m1549 -928
c141 -212 233 -419 290 -655 116 -480 64 -974 -150 -1413 -56 -116 -186 -322
-249 -394 l-30 -35 -1 1196 c0 658 -3 1265 -6 1350 l-5 154 31 -35 c18 -19 72
-95 120 -168z m-263 -1301 l-2 -1134 -740 -329 c-407 -180 -744 -328 -749
-328 -9 0 -1437 638 -1445 645 -5 6 -21 1218 -16 1223 3 3 120 -210 128 -232
1 -4 41 15 87 43 l85 51 62 -68 c35 -37 63 -71 63 -77 0 -5 -30 -39 -66 -76
l-66 -66 82 -74 c44 -41 85 -75 89 -77 4 -1 39 29 77 68 l69 70 102 -67 c57
-38 103 -72 103 -77 0 -5 -20 -42 -45 -83 -25 -40 -45 -77 -45 -81 0 -5 36
-26 80 -47 79 -39 80 -39 80 -77 l0 -38 580 0 580 0 0 375 0 375 -62 0 c-34 0
-59 3 -55 6 3 3 40 21 82 40 112 48 179 91 251 160 156 150 173 339 45 499
-96 119 -296 225 -516 275 -27 6 -97 16 -155 23 l-105 12 420 132 c231 73 548
172 705 221 l285 88 7 -120 c5 -67 7 -631 5 -1255z m-2684 1253 c681 -197
1060 -304 1075 -304 10 0 12 -3 7 -9 -6 -5 -55 -17 -110 -26 -326 -55 -569
-193 -657 -373 -29 -58 -33 -76 -33 -147 0 -66 5 -90 27 -138 54 -116 184
-223 361 -298 l92 -38 -72 -1 -73 0 0 -100 c0 -56 -4 -100 -9 -100 -36 0 -322
261 -375 343 l-18 27 -239 0 c-131 0 -240 3 -242 8 -3 4 -8 283 -12 620 -5
444 -4 612 4 612 6 0 129 -34 274 -76z m1434 -399 c312 -51 546 -201 599 -384
27 -91 -3 -201 -76 -285 -38 -42 -133 -113 -200 -146 -112 -57 -305 -106 -454
-117 l-88 -6 7 89 c16 193 33 335 41 343 5 5 130 80 277 166 147 87 266 159
264 161 -3 3 -344 -142 -541 -230 -32 -14 -63 -26 -68 -26 -8 0 -462 212 -572
267 -48 24 -48 25 -26 40 65 46 268 113 399 132 96 14 339 12 438 -4z m-562
-349 l290 -175 20 -203 20 -203 -58 -3 c-71 -4 -266 30 -367 64 -404 136 -534
431 -289 658 47 44 64 54 77 47 9 -5 148 -88 307 -185z m845 -971 l0 -335
-515 0 -515 0 0 335 0 335 515 0 515 0 0 -335z m969 -861 c-326 -329 -749
-539 -1204 -599 -149 -19 -401 -19 -550 0 -452 60 -883 273 -1205 599 -46 47
-81 86 -76 86 5 0 173 -74 375 -164 995 -446 1154 -516 1169 -515 10 0 368
156 797 348 429 191 782 346 784 344 3 -2 -38 -46 -90 -99z"/>
<path d="M6922 5688 c-60 -76 -229 -240 -295 -288 l-47 -33 0 -244 c0 -134 2
-243 5 -243 3 0 42 18 86 41 53 26 79 45 76 53 -3 8 -26 44 -51 80 -25 37 -46
71 -46 76 0 5 45 41 101 81 l101 72 73 -73 74 -73 85 78 c47 42 86 81 86 86 0
4 -31 36 -70 70 -38 35 -70 66 -70 69 0 3 28 38 61 78 l61 72 83 -45 c46 -25
87 -45 92 -45 11 0 104 232 97 240 -3 3 -106 7 -228 8 l-223 4 -51 -64z"/>
<path d="M6503 4793 c44 -4 50 -7 63 -38 8 -19 14 -39 14 -44 0 -6 -33 -11
-72 -13 -72 -3 -73 -3 -69 -28 8 -57 11 -55 -67 -54 l-72 2 6 -37 c4 -20 9
-39 11 -43 2 -5 37 -8 78 -8 l74 0 -10 32 c-16 58 -15 58 70 58 l79 0 15 -45
16 -45 -81 0 c-89 0 -83 7 -62 -67 6 -23 5 -23 -79 -23 -92 0 -97 3 -97 60 l0
29 -87 3 -88 3 -3 43 -3 42 76 0 77 0 -7 33 c-4 17 -9 34 -10 37 -2 3 -36 7
-75 8 l-72 3 6 -34 c9 -47 -8 -59 -81 -55 l-58 3 -3 43 -3 42 65 0 c58 0 66 2
66 19 0 33 -11 51 -34 53 -11 0 2 4 29 8 28 4 -120 8 -327 8 -208 1 -378 0
-378 -2 0 -3 -24 -88 -54 -191 l-54 -185 692 6 c380 4 692 7 693 8 1 1 -24 85
-55 186 l-58 185 -59 1 c-50 1 -52 0 -12 -3z m-475 -20 c-36 -4 -38 -6 -38
-39 l0 -34 -70 0 -70 0 0 -40 0 -40 70 0 70 0 0 -45 0 -45 79 0 c86 0 91 -4
91 -61 l0 -29 -90 0 -90 0 0 45 0 45 -72 -2 -73 -3 1 43 1 42 -73 0 c-75 0
-84 -5 -84 -50 0 -11 -9 -24 -19 -30 -25 -13 -148 -13 -156 0 -3 5 -2 26 4 45
l9 35 -70 0 c-52 0 -69 3 -65 13 2 6 12 39 21 72 9 33 19 66 21 73 3 9 76 12
322 10 175 -1 301 -3 281 -5z m-530 -252 c10 -6 11 -17 5 -42 l-9 -34 -81 -3
-82 -3 11 38 c5 21 12 41 15 46 6 10 125 9 141 -2z m330 -38 l3 -43 -85 0
c-93 0 -92 -1 -80 59 l7 32 76 -3 76 -3 3 -42z"/>
<path d="M5430 4744 c-16 -41 -13 -44 44 -44 47 0 54 3 60 23 11 43 8 47 -44
47 -45 0 -52 -3 -60 -26z"/>
<path d="M5706 4748 c-12 -46 -10 -48 69 -48 l75 0 0 35 0 35 -69 0 c-63 0
-69 -2 -75 -22z"/>
<path d="M5535 4691 c-3 -2 -5 -19 -5 -38 l0 -33 80 0 80 0 0 38 0 37 -75 0
c-42 1 -78 -1 -80 -4z"/>
<path d="M6265 4782 c30 -4 35 -6 19 -11 -18 -5 -19 -10 -12 -38 l9 -33 69 0
c73 0 76 2 60 44 -8 21 -17 26 -47 28 -29 1 -23 3 22 8 49 5 40 7 -50 7 -60 0
-92 -2 -70 -5z"/>
<path d="M10230 8233 c-195 -89 -359 -164 -365 -166 -9 -3 60 -173 75 -182 3
-2 75 27 159 66 84 38 156 69 160 69 8 0 111 -218 111 -235 0 -6 -72 -43 -159
-83 l-159 -74 40 -86 c23 -48 42 -89 44 -91 2 -2 142 59 311 137 170 77 334
152 365 166 l57 25 -41 91 c-48 105 -29 103 -196 24 l-113 -53 -50 106 c-74
158 -80 139 70 207 147 66 138 47 79 172 l-33 70 -355 -163z"/>
<path d="M1101 8039 c-17 -45 -28 -86 -24 -90 4 -4 91 -40 193 -79 185 -72
224 -89 205 -90 -26 -1 -497 -69 -501 -73 -2 -2 -24 -54 -48 -116 -39 -99 -42
-113 -28 -118 27 -10 622 -242 676 -263 27 -11 53 -17 57 -13 4 5 21 43 37 85
l30 77 -247 97 c-135 53 -249 99 -253 103 -4 3 129 24 295 45 166 21 307 44
314 50 18 17 75 168 66 176 -6 5 -591 236 -724 285 -13 5 -23 -10 -48 -76z"/>
<path d="M826 7272 c-3 -6 -9 -31 -12 -56 l-7 -46 50 0 c63 0 103 -27 103 -70
0 -32 -3 -36 -75 -83 -100 -65 -154 -172 -162 -322 -4 -77 -2 -99 18 -150 86
-227 443 -331 656 -190 103 68 156 182 156 340 1 118 -16 166 -84 240 -77 83
-183 129 -328 141 l-79 7 -4 54 c-5 61 -39 106 -92 122 -52 16 -133 23 -140
13z m379 -417 c127 -33 195 -99 195 -190 0 -66 -29 -111 -90 -143 -89 -46
-292 -14 -375 59 -48 42 -70 104 -56 156 32 116 156 161 326 118z"/>
<path d="M10650 7035 c-212 -41 -385 -74 -386 -75 -1 0 8 -45 19 -100 16 -82
23 -100 36 -96 9 3 68 14 131 26 88 16 122 19 143 11 15 -6 27 -15 27 -20 0
-5 -61 -68 -136 -139 l-135 -131 20 -113 c12 -62 21 -117 21 -123 0 -5 85 75
188 178 l188 188 207 -106 c114 -59 207 -103 207 -98 0 23 -42 219 -48 225 -4
3 -54 27 -111 53 -130 58 -264 125 -260 130 2 2 75 17 163 34 87 17 161 32
163 35 8 8 -32 189 -42 192 -6 1 -183 -31 -395 -71z"/>
<path d="M563 6866 c-56 -17 -105 -35 -109 -38 -8 -9 -37 -159 -31 -165 3 -2
57 22 120 53 l115 58 7 45 c3 25 8 54 11 64 7 21 10 22 -113 -17z"/>
<path d="M545 6222 c-29 -7 -30 -10 -33 -66 -3 -53 -1 -58 15 -50 10 4 41 9
68 12 75 6 82 -7 87 -150 1 -64 5 -118 8 -120 3 -2 122 -1 265 2 143 3 278 3
300 -1 26 -5 49 -18 67 -38 24 -27 28 -40 28 -90 0 -69 -21 -103 -76 -121 -21
-7 -145 -15 -307 -18 l-272 -7 2 -98 c1 -55 3 -100 5 -100 2 -1 134 1 293 4
313 6 339 10 410 65 21 15 48 53 67 92 31 64 33 72 33 182 0 108 -2 119 -31
181 -33 69 -69 104 -140 136 -34 16 -71 18 -294 18 l-255 0 -5 35 c-9 48 -36
97 -65 116 -27 18 -123 27 -170 16z"/>
<path d="M10370 6102 l0 -99 46 -7 c26 -3 105 -6 175 -6 l129 0 0 -138 0 -138
-177 0 -178 1 -3 -96 -3 -97 228 -6 c125 -3 305 -9 400 -12 l171 -5 7 96 c4
53 5 98 2 101 -3 3 -71 8 -152 11 l-148 6 7 60 c3 33 6 93 6 133 l0 74 144 0
c122 0 145 2 150 16 3 9 6 53 6 99 l0 83 -217 6 c-120 3 -302 9 -405 12 l-188
6 0 -100z"/>
<path d="M1380 5178 c-68 -84 -127 -157 -131 -162 -4 -5 -26 5 -47 23 -56 44
-102 61 -164 61 -76 0 -124 -16 -169 -57 -40 -37 -69 -106 -69 -167 0 -32 86
-425 94 -434 5 -4 767 167 775 174 5 5 -29 167 -38 183 -6 9 -41 5 -145 -19
-76 -17 -139 -30 -141 -28 -1 2 -6 17 -9 34 -7 29 2 42 108 169 64 76 116 144
116 152 0 24 -43 207 -50 216 -4 5 -63 -61 -130 -145z m-248 -298 c27 -21 51
-72 62 -130 l6 -36 -98 -22 c-53 -12 -100 -22 -103 -22 -6 0 -20 47 -33 108
-7 37 12 86 41 104 38 24 94 23 125 -2z"/>
<path d="M10493 5309 c-77 -24 -161 -97 -198 -172 -39 -82 -58 -188 -46 -264
26 -170 144 -277 350 -319 258 -52 440 74 481 333 19 117 -15 229 -93 307
-114 113 -336 165 -494 115z m249 -210 c163 -47 229 -166 155 -278 -37 -56
-93 -75 -200 -68 -134 9 -227 54 -273 132 -29 50 -30 86 -5 141 44 98 153 123
323 73z"/>
<path d="M10161 4583 c-7 -16 -23 -56 -36 -90 l-24 -62 42 -38 c23 -21 53 -46
66 -55 l23 -16 -47 -122 c-37 -96 -50 -120 -63 -116 -10 3 -48 6 -85 8 l-68 3
-35 -88 c-19 -49 -34 -92 -34 -96 0 -7 680 -42 795 -41 l50 0 39 101 c35 89
38 103 25 113 -9 6 -152 126 -318 266 -167 140 -306 256 -310 258 -4 1 -13
-10 -20 -25z m300 -444 c55 -45 99 -82 97 -84 -5 -4 -252 15 -257 20 -5 6 48
145 55 145 3 0 50 -36 105 -81z"/>
<path d="M1491 4194 c-157 -63 -290 -113 -296 -110 -6 2 -29 50 -51 105 -44
114 -38 111 -133 68 l-50 -22 122 -307 c67 -168 125 -309 128 -312 5 -5 127
39 138 49 1 2 -15 51 -38 109 -23 57 -41 106 -41 109 0 2 134 57 298 122 163
65 298 119 299 120 7 5 -72 185 -81 184 -6 -1 -139 -52 -295 -115z"/>
<path d="M1994 3219 l-58 -59 -88 0 -88 0 0 -87 0 -87 -60 -61 -60 -61 60 -59
60 -59 0 -88 0 -88 87 0 87 0 63 -62 63 -62 63 62 63 62 86 0 86 0 -2 85 -1
84 58 58 c31 32 57 63 57 69 0 5 -27 36 -61 69 l-61 60 6 83 6 82 -88 0 -88 0
-39 41 c-22 22 -52 49 -66 59 l-26 19 -59 -60z m127 -150 c155 -47 202 -244
85 -361 -87 -88 -244 -75 -317 25 -63 87 -60 187 8 267 61 71 138 94 224 69z"/>
<path d="M9725 3220 l-59 -60 -87 0 -87 0 1 -85 2 -84 -63 -63 -62 -64 60 -59
60 -59 0 -88 0 -88 87 0 87 0 63 -62 63 -62 63 62 63 62 87 0 87 0 0 88 0 88
60 59 60 59 -60 61 -60 61 0 87 0 87 -88 0 -88 0 -59 60 c-33 33 -62 60 -65
60 -3 0 -32 -27 -65 -60z m128 -151 c23 -6 59 -30 87 -57 82 -80 90 -184 21
-279 -89 -123 -290 -105 -360 31 -47 92 -25 198 56 265 58 48 121 61 196 40z"/>
<path d="M8892 2359 c-40 -28 -72 -53 -72 -57 0 -4 56 -84 125 -179 69 -94
125 -174 125 -177 0 -8 -26 3 -253 108 l-208 96 -72 -50 c-40 -27 -85 -60
-100 -73 l-29 -23 163 -224 c89 -124 194 -269 232 -322 80 -111 70 -109 173
-31 l51 38 -158 220 c-88 120 -159 220 -159 222 0 5 48 -16 304 -136 142 -66
261 -121 265 -121 5 0 137 92 149 105 2 2 -1 13 -7 24 -10 18 -434 606 -450
624 -4 4 -39 -16 -79 -44z"/>
<path d="M2664 2080 c-126 -176 -230 -324 -232 -329 -4 -13 140 -113 149 -104
4 5 58 80 121 168 148 209 182 254 188 255 8 0 5 -27 -56 -566 l-6 -50 78 -53
c63 -42 80 -50 90 -39 42 44 445 622 442 635 -3 14 -122 104 -137 103 -3 -1
-62 -80 -131 -178 -96 -136 -126 -172 -128 -155 -2 13 6 105 17 205 12 101 24
206 26 233 l6 50 -68 50 c-37 27 -82 60 -99 72 l-32 24 -228 -321z"/>
<path d="M7888 2067 c-38 -17 -68 -33 -68 -37 0 -3 52 -31 115 -63 l115 -57
56 28 56 28 -90 67 c-49 37 -96 67 -103 66 -8 0 -44 -15 -81 -32z"/>
<path d="M8140 1867 c-165 -60 -260 -168 -276 -313 -8 -81 9 -161 57 -261 46
-96 111 -168 190 -210 49 -25 63 -28 155 -28 98 0 102 1 187 43 135 67 205
162 215 293 6 87 -10 157 -59 256 -76 153 -182 231 -326 239 -65 4 -89 1 -143
-19z m130 -153 c93 -26 201 -200 201 -324 1 -66 -16 -106 -61 -143 -108 -91
-262 1 -330 198 -48 138 -6 250 104 275 32 8 42 7 86 -6z"/>
<path d="M3358 1594 c-164 -157 -298 -289 -298 -293 0 -4 38 -28 85 -52 l84
-44 61 60 61 60 110 -55 110 -55 -7 -55 c-16 -125 -19 -119 74 -168 46 -24 85
-43 87 -41 5 6 125 783 125 812 0 21 -13 32 -89 71 -49 25 -93 46 -98 46 -4 0
-142 -129 -305 -286z m287 -1 c-2 -10 -11 -61 -20 -113 -9 -52 -18 -101 -20
-108 -4 -10 -24 -3 -76 24 l-70 37 88 89 c48 48 91 88 94 88 4 0 6 -8 4 -17z"/>
<path d="M4027 1663 c-7 -11 -224 -714 -229 -737 -2 -17 10 -24 82 -47 47 -15
88 -24 91 -21 3 4 39 114 79 245 41 131 77 232 80 225 4 -7 13 -76 20 -153 17
-201 11 -187 82 -208 49 -15 63 -16 75 -5 9 7 61 66 116 131 55 65 102 116
104 113 2 -2 -28 -106 -67 -232 -39 -125 -69 -234 -68 -242 3 -13 140 -62 174
-62 6 0 18 24 27 53 8 28 60 198 116 376 55 178 99 327 96 331 -2 4 -17 10
-32 13 -16 4 -63 18 -106 31 l-78 25 -136 -155 c-75 -85 -140 -154 -144 -154
-9 0 -14 29 -39 245 -12 93 -22 170 -23 171 -3 3 -205 64 -210 64 -3 0 -8 -3
-10 -7z"/>
<path d="M7510 1594 c-89 -19 -204 -78 -257 -131 -25 -24 -57 -70 -71 -101
-24 -51 -27 -68 -26 -167 0 -127 17 -183 86 -286 51 -75 119 -123 212 -146 92
-22 194 -8 302 41 72 34 195 114 209 137 7 10 -110 345 -126 363 -7 8 -285
-83 -319 -104 -12 -7 32 -135 46 -135 5 0 37 9 72 19 34 11 65 17 68 13 3 -3
17 -35 30 -72 l24 -66 -37 -16 c-21 -9 -68 -18 -105 -21 -55 -4 -74 -1 -113
18 -116 56 -190 259 -136 375 55 118 184 166 344 127 42 -11 77 -16 77 -11 0
14 -52 154 -62 167 -14 16 -134 15 -218 -4z"/>
<path d="M5842 1573 c8 -10 45 -55 82 -100 l68 -83 64 0 c35 0 64 3 64 6 0 3
-25 48 -56 100 l-55 94 -91 0 c-86 0 -90 -1 -76 -17z"/>
<path d="M6570 1338 c-91 -10 -171 -21 -178 -23 -8 -3 -11 -17 -7 -47 13 -96
10 -91 70 -84 51 6 55 5 59 -16 11 -51 57 -490 52 -495 -3 -3 -26 -8 -51 -10
-25 -3 -48 -9 -51 -14 -3 -5 -2 -36 2 -69 l7 -61 61 7 c160 17 358 42 362 47
3 3 2 32 -2 66 l-7 61 -58 0 c-33 0 -59 1 -59 3 0 1 -11 96 -25 212 -14 116
-25 231 -25 257 l0 47 48 3 c46 3 47 4 50 37 2 19 1 50 -3 68 -7 40 -1 39
-245 11z"/>
<path d="M5287 1329 c-174 -41 -255 -209 -170 -357 29 -50 89 -88 216 -133
129 -47 165 -92 118 -150 -27 -34 -119 -38 -203 -10 -62 22 -92 39 -162 95
-20 16 -38 27 -40 25 -2 -2 -8 -46 -13 -98 l-9 -94 70 -32 c99 -45 165 -59
282 -59 89 0 107 3 157 28 129 63 184 204 126 323 -28 57 -82 94 -216 144
-151 58 -185 100 -122 153 60 51 183 30 293 -48 36 -25 67 -43 70 -38 2 4 8
46 12 93 l6 85 -61 28 c-110 49 -256 68 -354 45z"/>
<path d="M5974 1293 l-71 -4 -16 -52 c-8 -29 -58 -198 -110 -377 -127 -430
-119 -380 -61 -380 27 0 72 3 100 6 l50 6 17 67 c10 36 21 72 26 79 6 10 41
14 131 15 l122 2 28 -75 28 -75 97 2 c54 2 100 4 102 7 2 2 -62 180 -144 395
l-148 391 -40 -2 c-22 -1 -72 -4 -111 -5z m90 -350 c20 -60 36 -116 36 -125 0
-16 -10 -18 -76 -18 -67 0 -75 2 -71 18 39 150 63 232 68 232 3 0 22 -48 43
-107z"/>
</g>
</svg>
